<svg width="28" height="29" viewBox="0 0 28 29" fill="none" xmlns="http://www.w3.org/2000/svg">
<path d="M9.04195 3.4165C9.04195 3.18444 8.94976 2.96188 8.78567 2.79779C8.62157 2.63369 8.39901 2.5415 8.16695 2.5415C7.93488 2.5415 7.71232 2.63369 7.54823 2.79779C7.38413 2.96188 7.29195 3.18444 7.29195 3.4165V5.25984C5.61195 5.394 4.51061 5.723 3.70095 6.53384C2.89011 7.3435 2.56111 8.446 2.42578 10.1248H25.5748C25.4394 8.44484 25.1104 7.3435 24.2996 6.53384C23.4899 5.723 22.3874 5.394 20.7086 5.25867V3.4165C20.7086 3.18444 20.6164 2.96188 20.4523 2.79779C20.2882 2.63369 20.0657 2.5415 19.8336 2.5415C19.6015 2.5415 19.379 2.63369 19.2149 2.79779C19.0508 2.96188 18.9586 3.18444 18.9586 3.4165V5.18167C18.1828 5.1665 17.3124 5.1665 16.3336 5.1665H11.6669C10.6881 5.1665 9.81778 5.1665 9.04195 5.18167V3.4165Z" fill="white"/>
<path fill-rule="evenodd" clip-rule="evenodd" d="M2.33398 14.5C2.33398 13.5212 2.33398 12.6508 2.34915 11.875H25.6522C25.6673 12.6508 25.6673 13.5212 25.6673 14.5V16.8333C25.6673 21.2328 25.6673 23.4332 24.3 24.7993C22.9338 26.1667 20.7335 26.1667 16.334 26.1667H11.6673C7.26782 26.1667 5.06748 26.1667 3.70132 24.7993C2.33398 23.4332 2.33398 21.2328 2.33398 16.8333V14.5ZM19.834 16.8333C20.1434 16.8333 20.4402 16.7104 20.6589 16.4916C20.8777 16.2728 21.0007 15.9761 21.0007 15.6667C21.0007 15.3572 20.8777 15.0605 20.6589 14.8417C20.4402 14.6229 20.1434 14.5 19.834 14.5C19.5246 14.5 19.2278 14.6229 19.009 14.8417C18.7902 15.0605 18.6673 15.3572 18.6673 15.6667C18.6673 15.9761 18.7902 16.2728 19.009 16.4916C19.2278 16.7104 19.5246 16.8333 19.834 16.8333ZM19.834 21.5C20.1434 21.5 20.4402 21.3771 20.6589 21.1583C20.8777 20.9395 21.0007 20.6428 21.0007 20.3333C21.0007 20.0239 20.8777 19.7272 20.6589 19.5084C20.4402 19.2896 20.1434 19.1667 19.834 19.1667C19.5246 19.1667 19.2278 19.2896 19.009 19.5084C18.7902 19.7272 18.6673 20.0239 18.6673 20.3333C18.6673 20.6428 18.7902 20.9395 19.009 21.1583C19.2278 21.3771 19.5246 21.5 19.834 21.5ZM15.1673 15.6667C15.1673 15.9761 15.0444 16.2728 14.8256 16.4916C14.6068 16.7104 14.3101 16.8333 14.0007 16.8333C13.6912 16.8333 13.3945 16.7104 13.1757 16.4916C12.9569 16.2728 12.834 15.9761 12.834 15.6667C12.834 15.3572 12.9569 15.0605 13.1757 14.8417C13.3945 14.6229 13.6912 14.5 14.0007 14.5C14.3101 14.5 14.6068 14.6229 14.8256 14.8417C15.0444 15.0605 15.1673 15.3572 15.1673 15.6667ZM15.1673 20.3333C15.1673 20.6428 15.0444 20.9395 14.8256 21.1583C14.6068 21.3771 14.3101 21.5 14.0007 21.5C13.6912 21.5 13.3945 21.3771 13.1757 21.1583C12.9569 20.9395 12.834 20.6428 12.834 20.3333C12.834 20.0239 12.9569 19.7272 13.1757 19.5084C13.3945 19.2896 13.6912 19.1667 14.0007 19.1667C14.3101 19.1667 14.6068 19.2896 14.8256 19.5084C15.0444 19.7272 15.1673 20.0239 15.1673 20.3333ZM8.16732 16.8333C8.47674 16.8333 8.77348 16.7104 8.99228 16.4916C9.21107 16.2728 9.33398 15.9761 9.33398 15.6667C9.33398 15.3572 9.21107 15.0605 8.99228 14.8417C8.77348 14.6229 8.47674 14.5 8.16732 14.5C7.8579 14.5 7.56115 14.6229 7.34236 14.8417C7.12357 15.0605 7.00065 15.3572 7.00065 15.6667C7.00065 15.9761 7.12357 16.2728 7.34236 16.4916C7.56115 16.7104 7.8579 16.8333 8.16732 16.8333ZM8.16732 21.5C8.47674 21.5 8.77348 21.3771 8.99228 21.1583C9.21107 20.9395 9.33398 20.6428 9.33398 20.3333C9.33398 20.0239 9.21107 19.7272 8.99228 19.5084C8.77348 19.2896 8.47674 19.1667 8.16732 19.1667C7.8579 19.1667 7.56115 19.2896 7.34236 19.5084C7.12357 19.7272 7.00065 20.0239 7.00065 20.3333C7.00065 20.6428 7.12357 20.9395 7.34236 21.1583C7.56115 21.3771 7.8579 21.5 8.16732 21.5Z" fill="white"/>
</svg>
