<svg width="28" height="29" viewBox="0 0 28 29" fill="none" xmlns="http://www.w3.org/2000/svg">
<path d="M14 3.125C7.71805 3.125 2.625 8.21805 2.625 14.5C2.625 20.782 7.71805 25.875 14 25.875C20.282 25.875 25.375 20.782 25.375 14.5C25.375 8.21805 20.282 3.125 14 3.125ZM19.25 16.25H14C13.7679 16.25 13.5454 16.1578 13.3813 15.9937C13.2172 15.8296 13.125 15.6071 13.125 15.375V7.5C13.125 7.26794 13.2172 7.04538 13.3813 6.88128C13.5454 6.71719 13.7679 6.625 14 6.625C14.2321 6.625 14.4546 6.71719 14.6187 6.88128C14.7828 7.04538 14.875 7.26794 14.875 7.5V14.5H19.25C19.4821 14.5 19.7046 14.5922 19.8687 14.7563C20.0328 14.9204 20.125 15.1429 20.125 15.375C20.125 15.6071 20.0328 15.8296 19.8687 15.9937C19.7046 16.1578 19.4821 16.25 19.25 16.25Z" fill="white"/>
</svg>
