<svg width="1489" height="201" viewBox="0 0 1489 201" fill="none" xmlns="http://www.w3.org/2000/svg">
<mask id="path-1-outside-1_1_133" maskUnits="userSpaceOnUse" x="-1" y="-1.7417" width="1491" height="203" fill="black">
<rect fill="white" x="-1" y="-1.7417" width="1491" height="203"/>
<path d="M80.4927 81.9087C95.2594 84.6775 107.35 91.0456 116.763 101.013C126.177 110.981 130.884 123.625 130.884 138.945C130.884 157.773 124.424 172.632 111.503 183.522C98.5819 194.412 82.8923 199.858 64.4339 199.858C49.6672 199.858 36.5617 196.535 25.1176 189.89C13.6734 183.061 5.55169 173.278 0.752515 160.541L22.3488 147.805C28.0709 165.71 42.0993 174.662 64.4339 174.662C76.4318 174.662 86.2148 171.524 93.7827 165.248C101.351 158.972 105.135 150.205 105.135 138.945C105.135 127.685 101.351 118.918 93.7827 112.642C86.2148 106.181 76.4318 102.951 64.4339 102.951H57.7889L47.5445 87.1693L92.3983 26.5336H6.29003V2.44542H122.578V25.1492L80.4927 81.9087ZM301.353 135.346V159.434H277.818V196.258H252.069V159.434H153.224V135.346L222.72 2.44542H250.408L180.912 135.346H252.069V80.5243H277.818V135.346H301.353ZM400.773 81.0781H363.948V156.111C363.948 162.941 365.24 167.832 367.825 170.786C370.593 173.555 374.746 175.031 380.284 175.216C385.821 175.216 392.651 175.031 400.773 174.662V196.258C379.73 199.027 364.317 197.366 354.535 191.275C344.752 184.999 339.86 173.278 339.86 156.111V81.0781H312.449V57.8205H339.86V26.2567L363.948 19.058V57.8205H400.773V81.0781ZM498.233 54.2212C514.476 54.2212 527.489 59.3895 537.272 69.7262C547.055 79.8783 551.947 93.7221 551.947 111.258V196.258H527.859V112.642C527.859 101.382 524.813 92.7069 518.722 86.6156C512.63 80.3397 504.232 77.2018 493.526 77.2018C481.528 77.2018 471.837 80.9858 464.454 88.5537C457.071 95.9371 453.379 107.381 453.379 122.886V196.258H429.291V2.44542H453.379V77.7556C463.162 62.066 478.113 54.2212 498.233 54.2212ZM683.034 171.893H773.019V196.258H657.285V2.44542H771.635V26.8105H683.034V86.3387H764.713V110.427H683.034V171.893ZM913.265 2.44542H937.353V196.258H913.265V172.447C901.267 190.721 883.824 199.858 860.936 199.858C841.554 199.858 825.034 192.844 811.375 178.815C797.716 164.602 790.886 147.344 790.886 127.039C790.886 106.735 797.716 89.5689 811.375 75.5406C825.034 61.3276 841.554 54.2212 860.936 54.2212C883.824 54.2212 901.267 63.358 913.265 81.6318V2.44542ZM863.981 176.6C878.01 176.6 889.731 171.893 899.144 162.479C908.558 152.881 913.265 141.068 913.265 127.039C913.265 113.011 908.558 101.29 899.144 91.8762C889.731 82.2779 878.01 77.4787 863.981 77.4787C850.137 77.4787 838.509 82.2779 829.095 91.8762C819.681 101.29 814.974 113.011 814.974 127.039C814.974 141.068 819.681 152.881 829.095 162.479C838.509 171.893 850.137 176.6 863.981 176.6ZM986.031 32.6249C981.417 32.6249 977.541 31.0559 974.403 27.918C971.265 24.7801 969.696 20.9961 969.696 16.5661C969.696 12.1361 971.265 8.3521 974.403 5.21418C977.541 1.89168 981.417 0.230432 986.031 0.230432C990.461 0.230432 994.245 1.89168 997.383 5.21418C1000.52 8.3521 1002.09 12.1361 1002.09 16.5661C1002.09 20.9961 1000.52 24.7801 997.383 27.918C994.245 31.0559 990.461 32.6249 986.031 32.6249ZM973.849 196.258V57.8205H997.937V196.258H973.849ZM1110 81.0781H1073.17V156.111C1073.17 162.941 1074.46 167.832 1077.05 170.786C1079.82 173.555 1083.97 175.031 1089.51 175.216C1095.04 175.216 1101.87 175.031 1110 174.662V196.258C1088.95 199.027 1073.54 197.366 1063.76 191.275C1053.97 184.999 1049.08 173.278 1049.08 156.111V81.0781H1021.67V57.8205H1049.08V26.2567L1073.17 19.058V57.8205H1110V81.0781ZM1150.7 32.6249C1146.08 32.6249 1142.21 31.0559 1139.07 27.918C1135.93 24.7801 1134.36 20.9961 1134.36 16.5661C1134.36 12.1361 1135.93 8.3521 1139.07 5.21418C1142.21 1.89168 1146.08 0.230432 1150.7 0.230432C1155.13 0.230432 1158.91 1.89168 1162.05 5.21418C1165.19 8.3521 1166.76 12.1361 1166.76 16.5661C1166.76 20.9961 1165.19 24.7801 1162.05 27.918C1158.91 31.0559 1155.13 32.6249 1150.7 32.6249ZM1138.51 196.258V57.8205H1162.6V196.258H1138.51ZM1316.19 178.815C1301.98 192.844 1284.72 199.858 1264.42 199.858C1244.11 199.858 1226.85 192.844 1212.64 178.815C1198.61 164.787 1191.6 147.528 1191.6 127.039C1191.6 106.551 1198.61 89.2921 1212.64 75.2637C1226.85 61.2353 1244.11 54.2212 1264.42 54.2212C1284.72 54.2212 1301.98 61.2353 1316.19 75.2637C1330.41 89.2921 1337.51 106.551 1337.51 127.039C1337.51 147.528 1330.41 164.787 1316.19 178.815ZM1264.42 176.323C1278.26 176.323 1289.89 171.616 1299.3 162.203C1308.72 152.789 1313.42 141.068 1313.42 127.039C1313.42 113.011 1308.72 101.29 1299.3 91.8762C1289.89 82.4625 1278.26 77.7556 1264.42 77.7556C1250.76 77.7556 1239.22 82.4625 1229.81 91.8762C1220.39 101.29 1215.69 113.011 1215.69 127.039C1215.69 141.068 1220.39 152.789 1229.81 162.203C1239.22 171.616 1250.76 176.323 1264.42 176.323ZM1434.85 54.2212C1451.09 54.2212 1464.11 59.3895 1473.89 69.7262C1483.67 79.8783 1488.56 93.7221 1488.56 111.258V196.258H1464.48V112.642C1464.48 101.382 1461.43 92.7069 1455.34 86.6156C1449.25 80.3397 1440.85 77.2018 1430.14 77.2018C1418.15 77.2018 1408.46 80.9858 1401.07 88.5537C1393.69 95.9371 1390 107.381 1390 122.886V196.258H1365.91V57.8205H1390V77.7556C1399.78 62.066 1414.73 54.2212 1434.85 54.2212Z"/>
</mask>
<path d="M80.4927 81.9087L79.6894 81.3131L78.7374 82.597L80.3084 82.8916L80.4927 81.9087ZM116.763 101.013L116.036 101.7L116.036 101.7L116.763 101.013ZM111.503 183.522L112.147 184.287L112.147 184.287L111.503 183.522ZM25.1176 189.89L24.6051 190.749L24.6154 190.755L25.1176 189.89ZM0.752515 160.541L0.24453 159.68L-0.479746 160.107L-0.183256 160.894L0.752515 160.541ZM22.3488 147.805L23.3013 147.501L22.92 146.307L21.8408 146.944L22.3488 147.805ZM93.7827 165.248L94.421 166.018L94.421 166.018L93.7827 165.248ZM93.7827 112.642L93.1334 113.402L93.1389 113.407L93.1444 113.412L93.7827 112.642ZM57.7889 102.951L56.9501 103.496L57.2458 103.951H57.7889V102.951ZM47.5445 87.1693L46.7405 86.5746L46.3281 87.1321L46.7057 87.7138L47.5445 87.1693ZM92.3983 26.5336L93.2023 27.1283L94.3819 25.5336H92.3983V26.5336ZM6.29003 26.5336H5.29003V27.5336H6.29003V26.5336ZM6.29003 2.44542V1.44542H5.29003V2.44542H6.29003ZM122.578 2.44542H123.578V1.44542H122.578V2.44542ZM122.578 25.1492L123.381 25.7448L123.578 25.4795V25.1492H122.578ZM80.3084 82.8916C94.8884 85.6253 106.782 91.9006 116.036 101.7L117.49 100.326C107.918 90.1906 95.6304 83.7296 80.677 80.9258L80.3084 82.8916ZM116.036 101.7C125.254 111.459 129.884 123.847 129.884 138.945H131.884C131.884 123.402 127.101 110.502 117.49 100.326L116.036 101.7ZM129.884 138.945C129.884 157.516 123.526 172.08 110.858 182.757L112.147 184.287C125.321 173.183 131.884 158.03 131.884 138.945H129.884ZM110.858 182.757C98.1348 193.481 82.6798 198.858 64.4339 198.858V200.858C83.1047 200.858 99.0289 195.344 112.147 184.287L110.858 182.757ZM64.4339 198.858C49.8227 198.858 36.8942 195.572 25.6197 189.025L24.6154 190.755C36.2293 197.498 49.5117 200.858 64.4339 200.858V198.858ZM25.63 189.031C14.3846 182.32 6.40952 172.718 1.68829 160.189L-0.183256 160.894C4.69386 173.837 12.9622 183.801 24.6051 190.749L25.63 189.031ZM1.2605 161.403L22.8568 148.666L21.8408 146.944L0.24453 159.68L1.2605 161.403ZM21.3963 148.11C24.3186 157.254 29.3872 164.173 36.6237 168.791C43.8448 173.399 53.1394 175.662 64.4339 175.662V173.662C53.3937 173.662 44.5069 171.449 37.6996 167.105C30.9077 162.771 26.1011 156.261 23.3013 147.501L21.3963 148.11ZM64.4339 175.662C76.6117 175.662 86.6366 172.473 94.421 166.018L93.1444 164.478C85.793 170.575 76.2519 173.662 64.4339 173.662V175.662ZM94.421 166.018C102.253 159.523 106.135 150.454 106.135 138.945H104.135C104.135 149.955 100.448 158.422 93.1444 164.478L94.421 166.018ZM106.135 138.945C106.135 127.436 102.253 118.367 94.421 111.872L93.1444 113.412C100.448 119.469 104.135 127.935 104.135 138.945H106.135ZM94.432 111.881C86.6476 105.236 76.6187 101.951 64.4339 101.951V103.951C76.2449 103.951 85.782 107.127 93.1334 113.402L94.432 111.881ZM64.4339 101.951H57.7889V103.951H64.4339V101.951ZM58.6277 102.407L48.3833 86.6249L46.7057 87.7138L56.9501 103.496L58.6277 102.407ZM48.3484 87.764L93.2023 27.1283L91.5944 25.9389L46.7405 86.5746L48.3484 87.764ZM92.3983 25.5336H6.29003V27.5336H92.3983V25.5336ZM7.29003 26.5336V2.44542H5.29003V26.5336H7.29003ZM6.29003 3.44542H122.578V1.44542H6.29003V3.44542ZM121.578 2.44542V25.1492H123.578V2.44542H121.578ZM121.774 24.5536L79.6894 81.3131L81.2959 82.5043L123.381 25.7448L121.774 24.5536ZM301.353 135.346H302.353V134.346H301.353V135.346ZM301.353 159.434V160.434H302.353V159.434H301.353ZM277.818 159.434V158.434H276.818V159.434H277.818ZM277.818 196.258V197.258H278.818V196.258H277.818ZM252.069 196.258H251.069V197.258H252.069V196.258ZM252.069 159.434H253.069V158.434H252.069V159.434ZM153.224 159.434H152.224V160.434H153.224V159.434ZM153.224 135.346L152.338 134.882L152.224 135.1V135.346H153.224ZM222.72 2.44542V1.44542H222.115L221.834 1.98204L222.72 2.44542ZM250.408 2.44542L251.294 2.90881L252.059 1.44542H250.408V2.44542ZM180.912 135.346L180.026 134.882L179.261 136.346H180.912V135.346ZM252.069 135.346V136.346H253.069V135.346H252.069ZM252.069 80.5243V79.5243H251.069V80.5243H252.069ZM277.818 80.5243H278.818V79.5243H277.818V80.5243ZM277.818 135.346H276.818V136.346H277.818V135.346ZM300.353 135.346V159.434H302.353V135.346H300.353ZM301.353 158.434H277.818V160.434H301.353V158.434ZM276.818 159.434V196.258H278.818V159.434H276.818ZM277.818 195.258H252.069V197.258H277.818V195.258ZM253.069 196.258V159.434H251.069V196.258H253.069ZM252.069 158.434H153.224V160.434H252.069V158.434ZM154.224 159.434V135.346H152.224V159.434H154.224ZM154.111 135.809L223.606 2.90881L221.834 1.98204L152.338 134.882L154.111 135.809ZM222.72 3.44542H250.408V1.44542H222.72V3.44542ZM249.522 1.98204L180.026 134.882L181.798 135.809L251.294 2.90881L249.522 1.98204ZM180.912 136.346H252.069V134.346H180.912V136.346ZM253.069 135.346V80.5243H251.069V135.346H253.069ZM252.069 81.5243H277.818V79.5243H252.069V81.5243ZM276.818 80.5243V135.346H278.818V80.5243H276.818ZM277.818 136.346H301.353V134.346H277.818V136.346ZM400.773 81.0781V82.0781H401.773V81.0781H400.773ZM363.948 81.0781V80.0781H362.948V81.0781H363.948ZM367.825 170.786L367.072 171.444L367.094 171.469L367.117 171.493L367.825 170.786ZM380.284 175.216L380.251 176.215L380.267 176.216H380.284V175.216ZM400.773 174.662H401.773V173.616L400.727 173.663L400.773 174.662ZM400.773 196.258L400.903 197.25L401.773 197.135V196.258H400.773ZM354.535 191.275L353.995 192.116L354.006 192.123L354.535 191.275ZM339.86 81.0781H340.86V80.0781H339.86V81.0781ZM312.449 81.0781H311.449V82.0781H312.449V81.0781ZM312.449 57.8205V56.8205H311.449V57.8205H312.449ZM339.86 57.8205V58.8205H340.86V57.8205H339.86ZM339.86 26.2567L339.574 25.2986L338.86 25.5119V26.2567H339.86ZM363.948 19.058H364.948V17.7154L363.662 18.0998L363.948 19.058ZM363.948 57.8205H362.948V58.8205H363.948V57.8205ZM400.773 57.8205H401.773V56.8205H400.773V57.8205ZM400.773 80.0781H363.948V82.0781H400.773V80.0781ZM362.948 81.0781V156.111H364.948V81.0781H362.948ZM362.948 156.111C362.948 163.02 364.246 168.215 367.072 171.444L368.577 170.127C366.234 167.45 364.948 162.862 364.948 156.111H362.948ZM367.117 171.493C370.128 174.504 374.565 176.026 380.251 176.215L380.317 174.216C374.928 174.037 371.058 172.605 368.532 170.079L367.117 171.493ZM380.284 176.216C385.842 176.216 392.688 176.031 400.818 175.661L400.727 173.663C392.615 174.032 385.801 174.216 380.284 174.216V176.216ZM399.773 174.662V196.258H401.773V174.662H399.773ZM400.642 195.267C379.659 198.028 364.541 196.327 355.063 190.426L354.006 192.123C364.094 198.404 379.801 200.026 400.903 197.25L400.642 195.267ZM355.075 190.433C345.699 184.419 340.86 173.111 340.86 156.111H338.86C338.86 173.444 343.804 185.579 353.995 192.116L355.075 190.433ZM340.86 156.111V81.0781H338.86V156.111H340.86ZM339.86 80.0781H312.449V82.0781H339.86V80.0781ZM313.449 81.0781V57.8205H311.449V81.0781H313.449ZM312.449 58.8205H339.86V56.8205H312.449V58.8205ZM340.86 57.8205V26.2567H338.86V57.8205H340.86ZM340.146 27.2149L364.235 20.0161L363.662 18.0998L339.574 25.2986L340.146 27.2149ZM362.948 19.058V57.8205H364.948V19.058H362.948ZM363.948 58.8205H400.773V56.8205H363.948V58.8205ZM399.773 57.8205V81.0781H401.773V57.8205H399.773ZM537.272 69.7262L536.546 70.4136L536.552 70.4201L537.272 69.7262ZM551.947 196.258V197.258H552.947V196.258H551.947ZM527.859 196.258H526.859V197.258H527.859V196.258ZM518.722 86.6156L518.004 87.3121L518.009 87.3174L518.015 87.3227L518.722 86.6156ZM464.454 88.5537L465.161 89.2609L465.17 89.252L464.454 88.5537ZM453.379 196.258V197.258H454.379V196.258H453.379ZM429.291 196.258H428.291V197.258H429.291V196.258ZM429.291 2.44542V1.44542H428.291V2.44542H429.291ZM453.379 2.44542H454.379V1.44542H453.379V2.44542ZM453.379 77.7556H452.379V81.2493L454.228 78.2847L453.379 77.7556ZM498.233 55.2212C514.244 55.2212 526.979 60.3054 536.546 70.4136L537.999 69.0388C527.999 58.4736 514.708 53.2212 498.233 53.2212V55.2212ZM536.552 70.4201C546.114 80.343 550.947 93.9145 550.947 111.258H552.947C552.947 93.5296 547.996 79.4136 537.992 69.0323L536.552 70.4201ZM550.947 111.258V196.258H552.947V111.258H550.947ZM551.947 195.258H527.859V197.258H551.947V195.258ZM528.859 196.258V112.642H526.859V196.258H528.859ZM528.859 112.642C528.859 101.202 525.76 92.2397 519.429 85.9085L518.015 87.3227C523.866 93.174 526.859 101.563 526.859 112.642H528.859ZM519.439 85.9191C513.119 79.4072 504.438 76.2018 493.526 76.2018V78.2018C504.026 78.2018 512.142 81.2723 518.004 87.3121L519.439 85.9191ZM493.526 76.2018C481.298 76.2018 471.336 80.0679 463.738 87.8554L465.17 89.252C472.339 81.9037 481.758 78.2018 493.526 78.2018V76.2018ZM463.747 87.8466C456.102 95.4917 452.379 107.244 452.379 122.886H454.379C454.379 107.519 458.04 96.3824 465.161 89.2608L463.747 87.8466ZM452.379 122.886V196.258H454.379V122.886H452.379ZM453.379 195.258H429.291V197.258H453.379V195.258ZM430.291 196.258V2.44542H428.291V196.258H430.291ZM429.291 3.44542H453.379V1.44542H429.291V3.44542ZM452.379 2.44542V77.7556H454.379V2.44542H452.379ZM454.228 78.2847C463.809 62.9176 478.422 55.2212 498.233 55.2212V53.2212C477.805 53.2212 462.515 61.2143 452.531 77.2265L454.228 78.2847ZM683.034 171.893H682.034V172.893H683.034V171.893ZM773.019 171.893H774.019V170.893H773.019V171.893ZM773.019 196.258V197.258H774.019V196.258H773.019ZM657.285 196.258H656.285V197.258H657.285V196.258ZM657.285 2.44542V1.44542H656.285V2.44542H657.285ZM771.635 2.44542H772.635V1.44542H771.635V2.44542ZM771.635 26.8105V27.8105H772.635V26.8105H771.635ZM683.034 26.8105V25.8105H682.034V26.8105H683.034ZM683.034 86.3387H682.034V87.3387H683.034V86.3387ZM764.713 86.3387H765.713V85.3387H764.713V86.3387ZM764.713 110.427V111.427H765.713V110.427H764.713ZM683.034 110.427V109.427H682.034V110.427H683.034ZM683.034 172.893H773.019V170.893H683.034V172.893ZM772.019 171.893V196.258H774.019V171.893H772.019ZM773.019 195.258H657.285V197.258H773.019V195.258ZM658.285 196.258V2.44542H656.285V196.258H658.285ZM657.285 3.44542H771.635V1.44542H657.285V3.44542ZM770.635 2.44542V26.8105H772.635V2.44542H770.635ZM771.635 25.8105H683.034V27.8105H771.635V25.8105ZM682.034 26.8105V86.3387H684.034V26.8105H682.034ZM683.034 87.3387H764.713V85.3387H683.034V87.3387ZM763.713 86.3387V110.427H765.713V86.3387H763.713ZM764.713 109.427H683.034V111.427H764.713V109.427ZM682.034 110.427V171.893H684.034V110.427H682.034ZM913.265 2.44542V1.44542H912.265V2.44542H913.265ZM937.353 2.44542H938.353V1.44542H937.353V2.44542ZM937.353 196.258V197.258H938.353V196.258H937.353ZM913.265 196.258H912.265V197.258H913.265V196.258ZM913.265 172.447H914.265V169.102L912.429 171.898L913.265 172.447ZM811.375 178.815L810.654 179.508L810.658 179.513L811.375 178.815ZM811.375 75.5406L812.091 76.2382L812.096 76.2335L811.375 75.5406ZM913.265 81.6318L912.429 82.1807L914.265 84.9769V81.6318H913.265ZM899.144 162.479L899.851 163.187L899.858 163.18L899.144 162.479ZM899.144 91.8762L898.43 92.5765L898.437 92.5833L899.144 91.8762ZM829.095 91.8762L829.802 92.5834L829.809 92.5764L829.095 91.8762ZM829.095 162.479L828.381 163.18L828.388 163.187L829.095 162.479ZM913.265 3.44542H937.353V1.44542H913.265V3.44542ZM936.353 2.44542V196.258H938.353V2.44542H936.353ZM937.353 195.258H913.265V197.258H937.353V195.258ZM914.265 196.258V172.447H912.265V196.258H914.265ZM912.429 171.898C900.626 189.875 883.506 198.858 860.936 198.858V200.858C884.142 200.858 901.908 191.567 914.101 172.996L912.429 171.898ZM860.936 198.858C841.827 198.858 825.564 191.955 812.091 178.118L810.658 179.513C824.504 193.732 841.281 200.858 860.936 200.858V198.858ZM812.096 178.122C798.622 164.102 791.886 147.094 791.886 127.039H789.886C789.886 147.593 796.81 165.103 810.654 179.508L812.096 178.122ZM791.886 127.039C791.886 106.985 798.621 90.0723 812.091 76.2382L810.658 74.843C796.81 89.0656 789.886 106.485 789.886 127.039H791.886ZM812.096 76.2335C825.57 62.213 841.832 55.2212 860.936 55.2212V53.2212C841.277 53.2212 824.498 60.4423 810.654 74.8476L812.096 76.2335ZM860.936 55.2212C883.506 55.2212 900.626 64.204 912.429 82.1807L914.101 81.083C901.908 62.5121 884.142 53.2212 860.936 53.2212V55.2212ZM914.265 81.6318V2.44542H912.265V81.6318H914.265ZM863.981 177.6C878.259 177.6 890.239 172.799 899.851 163.187L898.437 161.772C889.222 170.988 877.76 175.6 863.981 175.6V177.6ZM899.858 163.18C909.464 153.386 914.265 141.317 914.265 127.039H912.265C912.265 140.819 907.652 152.377 898.43 161.779L899.858 163.18ZM914.265 127.039C914.265 112.762 909.464 100.781 899.851 91.1691L898.437 92.5833C907.653 101.799 912.265 113.26 912.265 127.039H914.265ZM899.858 91.176C890.248 81.3768 878.265 76.4787 863.981 76.4787V78.4787C877.754 78.4787 889.214 83.179 898.43 92.5764L899.858 91.176ZM863.981 76.4787C849.878 76.4787 837.989 81.3796 828.381 91.176L829.809 92.5764C839.028 83.1761 850.397 78.4787 863.981 78.4787V76.4787ZM828.388 91.1691C818.776 100.781 813.974 112.762 813.974 127.039H815.974C815.974 113.26 820.587 101.799 829.802 92.5833L828.388 91.1691ZM813.974 127.039C813.974 141.317 818.775 153.386 828.381 163.18L829.809 161.779C820.587 152.377 815.974 140.819 815.974 127.039H813.974ZM828.388 163.187C837.997 172.796 849.884 177.6 863.981 177.6V175.6C850.391 175.6 839.02 170.99 829.802 161.772L828.388 163.187ZM974.403 27.918L975.11 27.2109L975.11 27.2109L974.403 27.918ZM974.403 5.21418L975.11 5.92128L975.12 5.91118L975.13 5.9008L974.403 5.21418ZM997.383 5.21418L996.656 5.9008L996.666 5.91118L996.676 5.92128L997.383 5.21418ZM997.383 27.918L996.676 27.2109L996.676 27.2109L997.383 27.918ZM973.849 196.258H972.849V197.258H973.849V196.258ZM973.849 57.8205V56.8205H972.849V57.8205H973.849ZM997.937 57.8205H998.937V56.8205H997.937V57.8205ZM997.937 196.258V197.258H998.937V196.258H997.937ZM986.031 31.6249C981.67 31.6249 978.052 30.1531 975.11 27.2109L973.696 28.6251C977.029 31.9587 981.163 33.6249 986.031 33.6249V31.6249ZM975.11 27.2109C972.159 24.2601 970.696 20.7304 970.696 16.5661H968.696C968.696 21.2618 970.37 25.3 973.696 28.6251L975.11 27.2109ZM970.696 16.5661C970.696 12.4018 972.159 8.87204 975.11 5.92128L973.696 4.50707C970.37 7.83217 968.696 11.8703 968.696 16.5661H970.696ZM975.13 5.9008C978.077 2.78053 981.689 1.23043 986.031 1.23043V-0.769568C981.145 -0.769568 977.005 1.00283 973.676 4.52755L975.13 5.9008ZM986.031 1.23043C990.177 1.23043 993.701 2.77119 996.656 5.9008L998.11 4.52755C994.79 1.01217 990.746 -0.769568 986.031 -0.769568V1.23043ZM996.676 5.92128C999.627 8.87204 1001.09 12.4018 1001.09 16.5661H1003.09C1003.09 11.8703 1001.42 7.83217 998.09 4.50707L996.676 5.92128ZM1001.09 16.5661C1001.09 20.7304 999.627 24.2601 996.676 27.2109L998.09 28.6251C1001.42 25.3 1003.09 21.2618 1003.09 16.5661H1001.09ZM996.676 27.2109C993.725 30.1616 990.196 31.6249 986.031 31.6249V33.6249C990.727 33.6249 994.765 31.9502 998.09 28.6251L996.676 27.2109ZM974.849 196.258V57.8205H972.849V196.258H974.849ZM973.849 58.8205H997.937V56.8205H973.849V58.8205ZM996.937 57.8205V196.258H998.937V57.8205H996.937ZM997.937 195.258H973.849V197.258H997.937V195.258ZM1110 81.0781V82.0781H1111V81.0781H1110ZM1073.17 81.0781V80.0781H1072.17V81.0781H1073.17ZM1077.05 170.786L1076.3 171.444L1076.32 171.469L1076.34 171.493L1077.05 170.786ZM1089.51 175.216L1089.47 176.215L1089.49 176.216H1089.51V175.216ZM1110 174.662H1111V173.616L1109.95 173.663L1110 174.662ZM1110 196.258L1110.13 197.25L1111 197.135V196.258H1110ZM1063.76 191.275L1063.22 192.116L1063.23 192.123L1063.76 191.275ZM1049.08 81.0781H1050.08V80.0781H1049.08V81.0781ZM1021.67 81.0781H1020.67V82.0781H1021.67V81.0781ZM1021.67 57.8205V56.8205H1020.67V57.8205H1021.67ZM1049.08 57.8205V58.8205H1050.08V57.8205H1049.08ZM1049.08 26.2567L1048.8 25.2986L1048.08 25.5119V26.2567H1049.08ZM1073.17 19.058H1074.17V17.7154L1072.89 18.0998L1073.17 19.058ZM1073.17 57.8205H1072.17V58.8205H1073.17V57.8205ZM1110 57.8205H1111V56.8205H1110V57.8205ZM1110 80.0781H1073.17V82.0781H1110V80.0781ZM1072.17 81.0781V156.111H1074.17V81.0781H1072.17ZM1072.17 156.111C1072.17 163.02 1073.47 168.215 1076.3 171.444L1077.8 170.127C1075.46 167.45 1074.17 162.862 1074.17 156.111H1072.17ZM1076.34 171.493C1079.35 174.504 1083.79 176.026 1089.47 176.215L1089.54 174.216C1084.15 174.037 1080.28 172.605 1077.75 170.079L1076.34 171.493ZM1089.51 176.216C1095.06 176.216 1101.91 176.031 1110.04 175.661L1109.95 173.663C1101.84 174.032 1095.02 174.216 1089.51 174.216V176.216ZM1109 174.662V196.258H1111V174.662H1109ZM1109.87 195.267C1088.88 198.028 1073.76 196.327 1064.29 190.426L1063.23 192.123C1073.32 198.404 1089.02 200.026 1110.13 197.25L1109.87 195.267ZM1064.3 190.433C1054.92 184.419 1050.08 173.111 1050.08 156.111H1048.08C1048.08 173.444 1053.03 185.579 1063.22 192.116L1064.3 190.433ZM1050.08 156.111V81.0781H1048.08V156.111H1050.08ZM1049.08 80.0781H1021.67V82.0781H1049.08V80.0781ZM1022.67 81.0781V57.8205H1020.67V81.0781H1022.67ZM1021.67 58.8205H1049.08V56.8205H1021.67V58.8205ZM1050.08 57.8205V26.2567H1048.08V57.8205H1050.08ZM1049.37 27.2149L1073.46 20.0161L1072.89 18.0998L1048.8 25.2986L1049.37 27.2149ZM1072.17 19.058V57.8205H1074.17V19.058H1072.17ZM1073.17 58.8205H1110V56.8205H1073.17V58.8205ZM1109 57.8205V81.0781H1111V57.8205H1109ZM1139.07 27.918L1139.77 27.2109L1139.77 27.2109L1139.07 27.918ZM1139.07 5.21418L1139.77 5.92128L1139.78 5.91118L1139.79 5.9008L1139.07 5.21418ZM1162.05 5.21418L1161.32 5.9008L1161.33 5.91118L1161.34 5.92128L1162.05 5.21418ZM1162.05 27.918L1161.34 27.2109L1161.34 27.2109L1162.05 27.918ZM1138.51 196.258H1137.51V197.258H1138.51V196.258ZM1138.51 57.8205V56.8205H1137.51V57.8205H1138.51ZM1162.6 57.8205H1163.6V56.8205H1162.6V57.8205ZM1162.6 196.258V197.258H1163.6V196.258H1162.6ZM1150.7 31.6249C1146.34 31.6249 1142.72 30.1531 1139.77 27.2109L1138.36 28.6251C1141.69 31.9587 1145.83 33.6249 1150.7 33.6249V31.6249ZM1139.77 27.2109C1136.82 24.2601 1135.36 20.7304 1135.36 16.5661H1133.36C1133.36 21.2618 1135.04 25.3 1138.36 28.6251L1139.77 27.2109ZM1135.36 16.5661C1135.36 12.4018 1136.82 8.87204 1139.77 5.92128L1138.36 4.50707C1135.04 7.83217 1133.36 11.8703 1133.36 16.5661H1135.36ZM1139.79 5.9008C1142.74 2.78053 1146.35 1.23043 1150.7 1.23043V-0.769568C1145.81 -0.769568 1141.67 1.00283 1138.34 4.52755L1139.79 5.9008ZM1150.7 1.23043C1154.84 1.23043 1158.37 2.77119 1161.32 5.9008L1162.78 4.52755C1159.46 1.01217 1155.41 -0.769568 1150.7 -0.769568V1.23043ZM1161.34 5.92128C1164.29 8.87204 1165.76 12.4018 1165.76 16.5661H1167.76C1167.76 11.8703 1166.08 7.83217 1162.76 4.50707L1161.34 5.92128ZM1165.76 16.5661C1165.76 20.7304 1164.29 24.2601 1161.34 27.2109L1162.76 28.6251C1166.08 25.3 1167.76 21.2618 1167.76 16.5661H1165.76ZM1161.34 27.2109C1158.39 30.1616 1154.86 31.6249 1150.7 31.6249V33.6249C1155.39 33.6249 1159.43 31.9502 1162.76 28.6251L1161.34 27.2109ZM1139.51 196.258V57.8205H1137.51V196.258H1139.51ZM1138.51 58.8205H1162.6V56.8205H1138.51V58.8205ZM1161.6 57.8205V196.258H1163.6V57.8205H1161.6ZM1162.6 195.258H1138.51V197.258H1162.6V195.258ZM1316.19 178.815L1316.89 179.527L1316.89 179.527L1316.19 178.815ZM1212.64 178.815L1211.93 179.522L1211.94 179.527L1212.64 178.815ZM1212.64 75.2637L1211.94 74.552L1211.93 74.5566L1212.64 75.2637ZM1316.19 75.2637L1316.89 74.552L1316.89 74.552L1316.19 75.2637ZM1299.3 162.203L1300.01 162.91L1300.01 162.91L1299.3 162.203ZM1299.3 91.8762L1298.6 92.5833L1298.6 92.5833L1299.3 91.8762ZM1229.81 91.8762L1230.51 92.5833L1230.51 92.5833L1229.81 91.8762ZM1229.81 162.203L1230.51 161.496L1230.51 161.496L1229.81 162.203ZM1315.49 178.103C1301.47 191.944 1284.46 198.858 1264.42 198.858V200.858C1284.98 200.858 1302.49 193.743 1316.89 179.527L1315.49 178.103ZM1264.42 198.858C1244.37 198.858 1227.37 191.944 1213.34 178.103L1211.94 179.527C1226.34 193.743 1243.85 200.858 1264.42 200.858V198.858ZM1213.35 178.108C1199.51 164.274 1192.6 147.273 1192.6 127.039H1190.6C1190.6 147.784 1197.71 165.3 1211.93 179.522L1213.35 178.108ZM1192.6 127.039C1192.6 106.806 1199.51 89.8049 1213.35 75.9708L1211.93 74.5566C1197.71 88.7792 1190.6 106.295 1190.6 127.039H1192.6ZM1213.34 75.9754C1227.37 62.1352 1244.37 55.2212 1264.42 55.2212V53.2212C1243.85 53.2212 1226.34 60.3355 1211.94 74.552L1213.34 75.9754ZM1264.42 55.2212C1284.46 55.2212 1301.47 62.1352 1315.49 75.9754L1316.89 74.552C1302.49 60.3355 1284.98 53.2212 1264.42 53.2212V55.2212ZM1315.49 75.9754C1329.51 89.8105 1336.51 106.81 1336.51 127.039H1338.51C1338.51 106.291 1331.3 88.7736 1316.89 74.552L1315.49 75.9754ZM1336.51 127.039C1336.51 147.269 1329.51 164.268 1315.49 178.103L1316.89 179.527C1331.3 165.305 1338.51 147.788 1338.51 127.039H1336.51ZM1264.42 177.323C1278.51 177.323 1290.4 172.519 1300.01 162.91L1298.6 161.496C1289.38 170.714 1278.01 175.323 1264.42 175.323V177.323ZM1300.01 162.91C1309.62 153.297 1314.42 141.317 1314.42 127.039H1312.42C1312.42 140.818 1307.81 152.28 1298.6 161.496L1300.01 162.91ZM1314.42 127.039C1314.42 112.762 1309.62 100.781 1300.01 91.1691L1298.6 92.5833C1307.81 101.799 1312.42 113.26 1312.42 127.039H1314.42ZM1300.01 91.1691C1290.4 81.5596 1278.51 76.7556 1264.42 76.7556V78.7556C1278.01 78.7556 1289.38 83.3653 1298.6 92.5833L1300.01 91.1691ZM1264.42 76.7556C1250.5 76.7556 1238.71 81.5624 1229.1 91.1691L1230.51 92.5833C1239.74 83.3625 1251.01 78.7556 1264.42 78.7556V76.7556ZM1229.1 91.1691C1219.49 100.781 1214.69 112.762 1214.69 127.039H1216.69C1216.69 113.26 1221.3 101.799 1230.51 92.5833L1229.1 91.1691ZM1214.69 127.039C1214.69 141.317 1219.49 153.297 1229.1 162.91L1230.51 161.496C1221.3 152.28 1216.69 140.818 1216.69 127.039H1214.69ZM1229.1 162.91C1238.71 172.516 1250.5 177.323 1264.42 177.323V175.323C1251.01 175.323 1239.74 170.716 1230.51 161.496L1229.1 162.91ZM1473.89 69.7262L1473.16 70.4136L1473.17 70.4201L1473.89 69.7262ZM1488.56 196.258V197.258H1489.56V196.258H1488.56ZM1464.48 196.258H1463.48V197.258H1464.48V196.258ZM1455.34 86.6156L1454.62 87.3121L1454.63 87.3174L1454.63 87.3227L1455.34 86.6156ZM1401.07 88.5537L1401.78 89.2609L1401.79 89.252L1401.07 88.5537ZM1390 196.258V197.258H1391V196.258H1390ZM1365.91 196.258H1364.91V197.258H1365.91V196.258ZM1365.91 57.8205V56.8205H1364.91V57.8205H1365.91ZM1390 57.8205H1391V56.8205H1390V57.8205ZM1390 77.7556H1389V81.2493L1390.85 78.2847L1390 77.7556ZM1434.85 55.2212C1450.86 55.2212 1463.6 60.3054 1473.16 70.4136L1474.62 69.0388C1464.62 58.4736 1451.33 53.2212 1434.85 53.2212V55.2212ZM1473.17 70.4201C1482.73 80.343 1487.56 93.9145 1487.56 111.258H1489.56C1489.56 93.5296 1484.61 79.4136 1474.61 69.0323L1473.17 70.4201ZM1487.56 111.258V196.258H1489.56V111.258H1487.56ZM1488.56 195.258H1464.48V197.258H1488.56V195.258ZM1465.48 196.258V112.642H1463.48V196.258H1465.48ZM1465.48 112.642C1465.48 101.202 1462.38 92.2397 1456.05 85.9085L1454.63 87.3227C1460.48 93.174 1463.48 101.563 1463.48 112.642H1465.48ZM1456.06 85.9191C1449.74 79.4072 1441.06 76.2018 1430.14 76.2018V78.2018C1440.64 78.2018 1448.76 81.2723 1454.62 87.3121L1456.06 85.9191ZM1430.14 76.2018C1417.92 76.2018 1407.95 80.0679 1400.36 87.8554L1401.79 89.252C1408.96 81.9037 1418.38 78.2018 1430.14 78.2018V76.2018ZM1400.37 87.8466C1392.72 95.4917 1389 107.244 1389 122.886H1391C1391 107.519 1394.66 96.3824 1401.78 89.2608L1400.37 87.8466ZM1389 122.886V196.258H1391V122.886H1389ZM1390 195.258H1365.91V197.258H1390V195.258ZM1366.91 196.258V57.8205H1364.91V196.258H1366.91ZM1365.91 58.8205H1390V56.8205H1365.91V58.8205ZM1389 57.8205V77.7556H1391V57.8205H1389ZM1390.85 78.2847C1400.43 62.9176 1415.04 55.2212 1434.85 55.2212V53.2212C1414.42 53.2212 1399.13 61.2143 1389.15 77.2265L1390.85 78.2847Z" fill="#E8E8E8" fill-opacity="0.1" mask="url(#path-1-outside-1_1_133)"/>
</svg>
